<?xml version="1.0" encoding="UTF-8" standalone="no"?>
<svg
   xmlns:dc="http://purl.org/dc/elements/1.1/"
   xmlns:cc="http://creativecommons.org/ns#"
   xmlns:rdf="http://www.w3.org/1999/02/22-rdf-syntax-ns#"
   xmlns:svg="http://www.w3.org/2000/svg"
   xmlns="http://www.w3.org/2000/svg"
   xmlns:sodipodi="http://sodipodi.sourceforge.net/DTD/sodipodi-0.dtd"
   xmlns:inkscape="http://www.inkscape.org/namespaces/inkscape"
   width="16"
   height="16"
   version="1.0"
   id="svg10"
   sodipodi:docname="org.fedoraproject.AnacondaInstaller-symbolic.svg"
   inkscape:version="1.0.2 (e86c870879, 2021-01-15)">
  <metadata
     id="metadata16">
    <rdf:RDF>
      <cc:Work
         rdf:about="">
        <dc:format>image/svg+xml</dc:format>
        <dc:type
           rdf:resource="http://purl.org/dc/dcmitype/StillImage" />
        <dc:title></dc:title>
      </cc:Work>
    </rdf:RDF>
  </metadata>
  <defs
     id="defs14" />
  <sodipodi:namedview
     pagecolor="#ffffff"
     bordercolor="#666666"
     borderopacity="1"
     objecttolerance="10"
     gridtolerance="10"
     guidetolerance="10"
     inkscape:pageopacity="0"
     inkscape:pageshadow="2"
     inkscape:window-width="2560"
     inkscape:window-height="1369"
     id="namedview12"
     showgrid="false"
     inkscape:zoom="45.343222"
     inkscape:cx="8"
     inkscape:cy="8.0064595"
     inkscape:window-x="2560"
     inkscape:window-y="34"
     inkscape:window-maximized="1"
     inkscape:current-layer="svg10" />
  <g
     transform="matrix(.2 0 0 .2 -25.6 -111.1)"
     stroke-width="5"
     color="#000"
     id="g8">
    <rect
       ry="4"
       rx="4"
       y="625.5"
       x="138"
       height="8"
       width="59.946"
       style="marker:none"
       overflow="visible"
       opacity=".257"
       id="rect4" />
    <rect
       ry="4"
       rx="4"
       y="625.5"
       x="138"
       height="8"
       width="38.125"
       style="marker:none"
       overflow="visible"
       id="rect6" />
  </g>
  <g id="armada-logo" transform="matrix(0.033694,0,0,0.033694,2.9609,1.0000)" fill="#000000"><path d="m 151.596,0.886105 c 0.135,-1.093348 1.68,-1.210083 1.959,-0.144599 C 168.445,57.4363 176.387,117.02 176.387,178.491 c 0,55.59 -6.495,109.637 -18.749,161.4 -0.107,0.453 -0.513,0.771 -0.977,0.769 -0.992,-0.005 -1.984,-0.007 -2.977,-0.007 -52.24,0 -103.2353,5.33 -152.47262,15.475 -0.927007,0.191 -1.581932,-0.893 -0.981462,-1.625 C 80.9452,256.16 135.133,134.492 151.596,0.886105 Z"/><path d="m 196.914,120.184 c -0.041,-1.007 1.269,-1.407 1.831,-0.57 47.009,69.847 81.523,148.804 100.337,233.67 0.155,0.703 -0.461,1.335 -1.168,1.197 -37.662,-7.32 -76.328,-11.83 -115.771,-13.3 -0.612,-0.022 -1.069,-0.541 -0.958,-1.143 1.646,-8.876 12.705,-69.46 15.582,-109.827 2.73,-38.305 0.73,-95.43 0.147,-110.027 z"/></g>
</svg>
